Coordinates
version=1
nRows=14
nColumns=50
inDegrees=no

Units are S.I. units (second, meters, Newtons, ...)
If the header above contains a line with 'inDegrees', this indicates whether rotational values are in degrees (yes) or radians (no).

endheader
time	pelvis_tilt	pelvis_list	pelvis_rotation	pelvis_tx	pelvis_ty	pelvis_tz	hip_flexion_r	hip_adduction_r	hip_rotation_r	knee_angle_r	ankle_angle_r	subtalar_angle_r	mtp_angle_r	hip_flexion_l	hip_adduction_l	hip_rotation_l	knee_angle_l	ankle_angle_l	subtalar_angle_l	mtp_angle_l	lumbar_bending	lumbar_extension	lumbar_twist	thorax_bending	thorax_extension	thorax_twist	head_bending	head_extension	head_twist	scapula_abduction_r	scapula_elevation_r	scapula_upward_rot_r	shoulder_r_x	shoulder_r_y	shoulder_r_z	elbow_flexion_r	pro_sup_r	wrist_flexion_r	wrist_deviation_r	scapula_abduction_l	scapula_elevation_l	scapula_upward_rot_l	shoulder_l_x	shoulder_l_y	shoulder_l_z	elbow_flexion_l	pro_sup_l	wrist_flexion_l	wrist_deviation_l
0	-0.0560669	-0.0127506	-0.00165996	-0.849863	0.978192	-0.536863	0.0209725	-0.0274617	-0.106261	0.309097	0.297197	-0.0110116	-0.0933141	0.00630287	-0.0599391	0.0422564	0.238435	0.277897	-0.103809	-0.0615769	6.33356	-0.2431	6.24926	-0.0377291	0.525333	-6.34387	-0.0654814	-0.510024	0.125484	-1.31232	0.0414411	6.1276	-0.409168	0.35333	-0.418731	0.391281	-0.466311	0.10326	-0.172674	-1.32575	0.105583	0.0223654	0.831157	-0.246632	0.597108	-3.93577	-0.221103	-0.16636	-0.530837
0.00833333	-0.0555765	-0.0132609	-0.00086035	-0.84986	0.978066	-0.536986	0.019682	-0.02692	-0.107901	0.308473	0.297941	-0.00961002	-0.09298	0.00546739	-0.0604457	0.0418275	0.23768	0.27993	-0.101385	-0.0603685	6.33472	-0.24481	6.24843	-0.0388628	0.526409	-6.34258	-0.0627514	-0.506282	0.121577	-1.31147	0.0422718	6.1299	-0.40439	0.350947	-0.420937	0.390879	-0.47695	0.10076	-0.159728	-1.32508	0.105945	0.0238646	0.829175	-0.247343	0.60028	-3.93596	-0.223394	-0.165454	-0.530163
0.0166667	-0.0550722	-0.0135867	4.63036e-05	-0.849832	0.977951	-0.537126	0.0187387	-0.0266423	-0.109704	0.308422	0.29894	-0.00832551	-0.092711	0.00477385	-0.0609346	0.0426844	0.237372	0.281641	-0.099896	-0.0591339	6.33526	-0.245994	6.24793	-0.039666	0.526592	-6.34195	-0.0599549	-0.504405	0.119852	-1.31113	0.0421563	6.13195	-0.39918	0.352033	-0.423336	0.387813	-0.486195	0.0966701	-0.158177	-1.32433	0.106002	0.0252753	0.827394	-0.248729	0.604416	-3.93674	-0.223322	-0.164057	-0.534167
0.025	-0.0547702	-0.013909	0.00123186	-0.849904	0.977857	-0.537326	0.0184351	-0.0264674	-0.111312	0.308894	0.299989	-0.00777455	-0.0924675	0.00435242	-0.0614106	0.0444249	0.236712	0.282766	-0.0989822	-0.0582903	6.33542	-0.246905	6.24781	-0.0395642	0.526251	-6.34247	-0.0583381	-0.503903	0.120931	-1.31171	0.0417496	6.13265	-0.396422	0.355582	-0.424364	0.383486	-0.486644	0.0931964	-0.167505	-1.32395	0.1059	0.0254735	0.826315	-0.249254	0.608813	-3.93826	-0.21828	-0.164161	-0.540679
0.0333333	-0.0544266	-0.0142217	0.0024167	-0.850017	0.977792	-0.537539	0.0183493	-0.0263456	-0.112508	0.309641	0.300887	-0.00796946	-0.0923711	0.00403938	-0.061737	0.0448233	0.236121	0.283831	-0.0976563	-0.0579103	6.33557	-0.24773	6.24771	-0.039189	0.525547	-6.34322	-0.0573927	-0.502861	0.122563	-1.31195	0.0416217	6.13284	-0.394738	0.358886	-0.424544	0.379908	-0.481075	0.0891155	-0.174808	-1.3235	0.105785	0.024981	0.825351	-0.248081	0.612388	-3.93988	-0.212678	-0.16881	-0.543122
0.0416667	-0.0541154	-0.0143459	0.00343643	-0.850076	0.977744	-0.537708	0.0182885	-0.0263197	-0.113387	0.310083	0.301777	-0.00850486	-0.0925653	0.00409926	-0.0617582	0.0435661	0.236312	0.284877	-0.0962415	-0.057956	6.33542	-0.248092	6.24751	-0.0390019	0.524556	-6.34366	-0.056085	-0.500159	0.122325	-1.31116	0.0416236	6.1329	-0.392632	0.361094	-0.425706	0.377324	-0.478121	0.0860816	-0.177712	-1.3224	0.105685	0.0244352	0.824699	-0.246919	0.615643	-3.94059	-0.212998	-0.175183	-0.540868
0.05	-0.0541883	-0.0144413	0.00443957	-0.850181	0.977686	-0.53785	0.0185217	-0.0261474	-0.113887	0.310013	0.302765	-0.00902531	-0.0928943	0.00472772	-0.06169	0.0432009	0.236805	0.28566	-0.0960746	-0.0582861	6.33489	-0.247934	6.24738	-0.038493	0.523326	-6.34382	-0.0546416	-0.496544	0.121644	-1.31043	0.0414816	6.13196	-0.392175	0.362154	-0.427185	0.37583	-0.479777	0.0860955	-0.181144	-1.32115	0.105604	0.0236527	0.824748	-0.247119	0.619216	-3.94106	-0.21539	-0.178192	-0.539451
0.0583333	-0.0544245	-0.0146607	0.00515061	-0.850481	0.977626	-0.537945	0.0190699	-0.025776	-0.113921	0.309941	0.303719	-0.00913222	-0.093167	0.00571163	-0.0617358	0.0444217	0.237522	0.286221	-0.0972473	-0.0585594	6.33437	-0.248244	6.24732	-0.037604	0.522085	-6.34356	-0.053273	-0.492585	0.122153	-1.31076	0.0414423	6.13081	-0.393926	0.360793	-0.427006	0.375446	-0.479256	0.0865087	-0.182215	-1.32065	0.1057	0.0234794	0.824219	-0.247794	0.622633	-3.94228	-0.212467	-0.178109	-0.542126
0.0666667	-0.0544518	-0.0148432	0.0053171	-0.850987	0.97761	-0.537986	0.019812	-0.0255557	-0.113889	0.310272	0.304272	-0.00879666	-0.0933526	0.00680659	-0.0617832	0.0455482	0.238682	0.286876	-0.0982828	-0.0586519	6.33404	-0.249896	6.24717	-0.0369969	0.521227	-6.34294	-0.0514786	-0.487757	0.123182	-1.31143	0.0418377	6.13143	-0.395678	0.355332	-0.424962	0.374636	-0.470088	0.0895175	-0.175172	-1.32047	0.105906	0.0243799	0.822504	-0.247283	0.625663	-3.94336	-0.203281	-0.176176	-0.545701
0.075	-0.0545883	-0.0148391	0.00564947	-0.851497	0.977606	-0.538072	0.0206827	-0.0256641	-0.114296	0.310738	0.304351	-0.00872956	-0.0932995	0.00820476	-0.0616616	0.0457726	0.240133	0.287585	-0.0984451	-0.0587066	6.33351	-0.251559	6.24691	-0.0364577	0.520312	-6.34285	-0.0495077	-0.482527	0.122889	-1.31108	0.0421149	6.13238	-0.396798	0.349044	-0.423815	0.375587	-0.460867	0.09812	-0.168583	-1.31974	0.105886	0.0252663	0.820402	-0.245605	0.628525	-3.94293	-0.192428	-0.171046	-0.547655
0.0833333	-0.0548988	-0.0148048	0.00669574	-0.851895	0.977575	-0.538265	0.0216814	-0.0258419	-0.114887	0.311456	0.304332	-0.00937154	-0.0928165	0.00975898	-0.0614649	0.0460115	0.241539	0.288182	-0.0984855	-0.0586677	6.33289	-0.252497	6.24661	-0.0358427	0.519029	-6.34352	-0.0477873	-0.478477	0.122854	-1.30986	0.0419979	6.13243	-0.396922	0.346004	-0.424772	0.378368	-0.461278	0.10886	-0.167977	-1.31853	0.105611	0.0253771	0.818505	-0.243528	0.631464	-3.94111	-0.182365	-0.163481	-0.548541
0.0916667	-0.0550741	-0.015042	0.008119	-0.852361	0.977563	-0.538527	0.0229051	-0.0257143	-0.115519	0.312748	0.305077	-0.0100055	-0.0922346	0.0109611	-0.0614092	0.0480472	0.242408	0.288701	-0.0994274	-0.0584969	6.33271	-0.253598	6.24631	-0.0351737	0.517287	-6.34408	-0.0467674	-0.475175	0.12453	-1.30894	0.0415367	6.13209	-0.395986	0.347133	-0.425669	0.379753	-0.469914	0.113842	-0.169773	-1.31762	0.105245	0.0253674	0.816677	-0.241825	0.634627	-3.93942	-0.174547	-0.158933	-0.549256
0.1	-0.0550668	-0.0154744	0.00976372	-0.852934	0.977586	-0.538796	0.0240161	-0.0252831	-0.116492	0.314145	0.30699	-0.0105297	-0.0921043	0.0117639	-0.0614497	0.0522574	0.24273	0.289423	-0.100922	-0.0582958	6.33278	-0.255229	6.24614	-0.0345476	0.515685	-6.34422	-0.0461196	-0.472662	0.126908	-1.30903	0.041059	6.13279	-0.393912	0.349985	-0.425691	0.378141	-0.478167	0.113378	-0.170163	-1.31716	0.105067	0.0259875	0.814344	-0.240987	0.637715	-3.93898	-0.169498	-0.159166	-0.549674
0.108333	-0.0552987	-0.0156788	0.0115563	-0.85343	0.977569	-0.538998	0.0250667	-0.0250079	-0.117821	0.315243	0.308939	-0.0114704	-0.0921261	0.0129929	-0.0614367	0.0557149	0.243375	0.29076	-0.101033	-0.0582028	6.33232	-0.256586	6.24637	-0.0339107	0.514832	-6.3445	-0.0451668	-0.471383	0.129863	-1.31	0.0408722	6.13509	-0.391181	0.351464	-0.426215	0.375753	-0.480147	0.115557	-0.16866	-1.31672	0.105319	0.0274479	0.81117	-0.241212	0.640353	-3.9397	-0.165433	-0.161307	-0.550949
